<svg width="1105" height="245" viewBox="0 0 1105 245" fill="none" xmlns="http://www.w3.org/2000/svg">
<path d="M0.85 15.915V186H98.005V148.515H44.965V15.915H0.85ZM173.16 102.87C179.535 102.87 186.675 105.93 191.265 110.265C196.365 115.365 199.17 122.76 199.17 128.88C199.17 135.51 196.365 142.14 191.265 146.985C186.42 151.83 179.79 154.635 173.16 154.635C166.275 154.635 159.645 151.83 154.8 146.985C150.21 142.395 146.895 135.765 146.895 128.88C146.895 122.25 149.7 115.11 154.8 110.265C159.39 105.93 166.53 102.87 173.16 102.87ZM241.5 128.88C241.5 108.48 232.32 95.22 223.905 87.06C214.47 78.135 198.15 68.19 172.905 68.19C148.17 68.19 131.595 77.88 122.16 87.06C113.745 95.22 104.565 108.48 104.565 128.88C104.565 144.18 109.665 158.715 122.16 170.955C137.97 186.51 156.33 189.825 172.905 189.825C191.265 189.825 208.86 185.745 223.905 170.955C236.4 158.715 241.5 144.18 241.5 128.88ZM345.624 82.98C340.779 77.625 329.814 68.19 311.454 68.19C295.134 68.19 280.089 74.565 270.399 84.255C261.219 93.435 252.804 108.48 252.804 129.9C252.804 146.985 258.159 159.99 269.124 171.72C282.894 186.255 297.939 189.825 310.179 189.825C321.399 189.825 336.189 186.51 345.624 173.505V186H386.424V72.015H345.624V82.98ZM320.634 102.87C329.304 102.87 335.169 106.695 338.994 110.265C345.369 116.385 346.899 123.525 346.899 128.88C346.899 138.06 342.819 143.67 339.249 147.24C334.149 152.34 327.519 155.145 320.889 155.145C314.004 155.145 306.864 151.575 302.529 147.495C297.429 142.65 294.624 135.51 294.624 128.88C294.624 123.015 297.174 115.62 302.784 110.265C308.649 104.655 315.534 102.87 320.634 102.87ZM406.878 186H447.678V124.8C447.678 117.915 450.228 110.52 454.308 106.695C457.623 103.635 462.978 101.34 469.353 101.34C473.433 101.34 478.533 102.105 482.358 106.185C487.713 111.795 487.458 121.74 487.458 128.37V186H528.258V113.58C528.258 101.085 527.238 91.395 517.548 81.705C508.113 72.27 495.618 69.465 483.888 69.465C473.943 69.465 458.898 71.505 447.678 86.295V72.015H406.878V186ZM544.568 170.7C556.808 179.115 567.518 183.195 570.323 184.215C582.818 188.805 593.018 189.825 603.728 189.825C621.833 189.825 639.428 187.02 653.963 172.485C666.203 160.245 670.028 145.2 670.028 129.645C670.028 117.915 667.733 108.48 659.063 99.3C650.138 89.61 638.918 85.785 628.208 82.47L614.693 78.39C604.238 75.33 601.178 72.27 599.903 70.74C598.118 68.445 597.608 66.15 597.608 63.09C597.608 59.265 599.393 56.46 601.943 53.91C606.278 49.83 612.143 48.81 616.478 48.81C622.343 48.81 632.288 49.83 645.548 60.285L663.143 25.86C647.078 17.445 627.443 12.09 610.613 12.09C589.958 12.09 575.678 19.485 567.008 28.155C559.613 35.55 551.453 48.3 551.453 69.21C551.453 77.88 552.473 89.865 561.143 99.3C568.028 106.95 578.483 110.775 585.623 113.07L597.098 116.64C608.063 119.955 614.693 121.74 619.028 125.565C622.598 128.625 623.873 132.45 623.873 135.765C623.873 140.1 622.088 143.925 619.538 146.475C616.733 149.535 611.378 152.34 602.453 152.34C587.153 152.34 572.873 143.925 563.438 135L544.568 170.7ZM686.421 186H727.221V124.8C727.221 115.62 730.536 109.5 734.106 106.185C738.696 102.105 744.561 101.34 748.896 101.34C752.976 101.34 758.076 101.85 761.901 106.185C766.491 111.285 767.001 119.955 767.001 128.37V186H807.801V113.58C807.801 102.615 807.291 91.905 797.091 81.705C790.206 74.82 779.496 69.465 763.431 69.465C756.291 69.465 747.876 70.485 739.971 75.075C735.126 77.88 730.281 82.47 727.221 86.295V0.104992H686.421V186ZM886.961 102.87C893.336 102.87 900.476 105.93 905.066 110.265C910.166 115.365 912.971 122.76 912.971 128.88C912.971 135.51 910.166 142.14 905.066 146.985C900.221 151.83 893.591 154.635 886.961 154.635C880.076 154.635 873.446 151.83 868.601 146.985C864.011 142.395 860.696 135.765 860.696 128.88C860.696 122.25 863.501 115.11 868.601 110.265C873.191 105.93 880.331 102.87 886.961 102.87ZM955.301 128.88C955.301 108.48 946.121 95.22 937.706 87.06C928.271 78.135 911.951 68.19 886.706 68.19C861.971 68.19 845.396 77.88 835.961 87.06C827.546 95.22 818.366 108.48 818.366 128.88C818.366 144.18 823.466 158.715 835.961 170.955C851.771 186.51 870.131 189.825 886.706 189.825C905.066 189.825 922.661 185.745 937.706 170.955C950.201 158.715 955.301 144.18 955.301 128.88ZM1011.99 175.035C1024.74 188.295 1040.04 189.825 1047.44 189.825C1058.91 189.825 1073.7 186.51 1086.45 174.015C1097.42 163.305 1104.81 148.005 1104.81 128.88C1104.81 109.245 1096.91 94.2 1087.47 84.765C1078.29 75.585 1064.52 68.19 1046.93 68.19C1030.1 68.19 1019.13 75.585 1011.99 84.51V72.015H971.195V244.395H1011.99V175.035ZM1036.98 102.87C1044.12 102.87 1050.5 105.675 1055.09 110.52C1060.19 115.62 1062.99 123.015 1062.99 129.39C1062.99 136.275 1059.42 143.16 1055.09 147.495C1050.5 152.34 1044.12 155.145 1036.98 155.145C1030.1 155.145 1023.47 152.34 1018.62 147.495C1014.29 143.16 1010.72 136.02 1010.72 129.39C1010.72 123.015 1013.52 115.62 1018.62 110.52C1023.47 105.675 1030.1 102.87 1036.98 102.87Z" fill="#149778"/>
</svg>
